<?xml version="1.0" encoding="UTF-8" standalone="no"?>
<!-- Created with Inkscape (http://www.inkscape.org/) -->

<svg
   xmlns:dc="http://purl.org/dc/elements/1.1/"
   xmlns:cc="http://creativecommons.org/ns#"
   xmlns:rdf="http://www.w3.org/1999/02/22-rdf-syntax-ns#"
   xmlns:svg="http://www.w3.org/2000/svg"
   xmlns="http://www.w3.org/2000/svg"
   xmlns:sodipodi="http://sodipodi.sourceforge.net/DTD/sodipodi-0.dtd"
   xmlns:inkscape="http://www.inkscape.org/namespaces/inkscape"
   width="48px"
   height="48px"
   id="svg3023"
   version="1.1"
   inkscape:version="0.48.3.1 r9886"
   sodipodi:docname="add-row.svg">
  <defs
     id="defs3025" />
  <sodipodi:namedview
     id="base"
     pagecolor="#ffffff"
     bordercolor="#666666"
     borderopacity="1.0"
     inkscape:pageopacity="0.0"
     inkscape:pageshadow="2"
     inkscape:zoom="7"
     inkscape:cx="8.4285714"
     inkscape:cy="24"
     inkscape:current-layer="layer1"
     showgrid="true"
     inkscape:grid-bbox="true"
     inkscape:document-units="px"
     inkscape:window-width="1368"
     inkscape:window-height="694"
     inkscape:window-x="0"
     inkscape:window-y="30"
     inkscape:window-maximized="1" />
  <metadata
     id="metadata3028">
    <rdf:RDF>
      <cc:Work
         rdf:about="">
        <dc:format>image/svg+xml</dc:format>
        <dc:type
           rdf:resource="http://purl.org/dc/dcmitype/StillImage" />
        <dc:title />
      </cc:Work>
    </rdf:RDF>
  </metadata>
  <g
     id="layer1"
     inkscape:label="Layer 1"
     inkscape:groupmode="layer">
    <path
       style="fill:#000000;fill-opacity:1;fill-rule:nonzero;stroke:none"
       d="M 5.1875 14.90625 C 3.9320226 14.90625 2.90625 15.900773 2.90625 17.15625 L 2.90625 30.84375 C 2.90625 32.099227 3.9320226 33.09375 5.1875 33.09375 L 20.46875 33.09375 C 21.724227 33.09375 22.75 32.099227 22.75 30.84375 L 22.75 17.15625 C 22.75 15.900773 21.724227 14.90625 20.46875 14.90625 L 5.1875 14.90625 z M 11.46875 16.375 L 14.15625 16.375 L 14.15625 22.625 L 20.46875 22.625 L 20.46875 25.34375 L 14.15625 25.34375 L 14.15625 31.625 L 11.46875 31.625 L 11.46875 25.34375 L 5.1875 25.34375 L 5.1875 22.625 L 11.46875 22.625 L 11.46875 16.375 z "
       id="rect3176" />
    <path
       style="fill:#000000;fill-opacity:1;fill-rule:nonzero;stroke:none"
       d="M 27.53125 14.90625 C 26.275772 14.90625 25.25 15.900773 25.25 17.15625 L 25.25 30.84375 C 25.25 32.099227 26.275772 33.09375 27.53125 33.09375 L 42.8125 33.09375 C 44.067977 33.09375 45.09375 32.099227 45.09375 30.84375 L 45.09375 17.15625 C 45.09375 15.900773 44.067977 14.90625 42.8125 14.90625 L 27.53125 14.90625 z M 33.8125 16.375 L 36.5 16.375 L 36.5 22.625 L 42.8125 22.625 L 42.8125 25.34375 L 36.5 25.34375 L 36.5 31.625 L 33.8125 31.625 L 33.8125 25.34375 L 27.53125 25.34375 L 27.53125 22.625 L 33.8125 22.625 L 33.8125 16.375 z "
       id="rect3176-4" />
    <g
       style="font-size:30.50896454px;font-style:normal;font-variant:normal;font-weight:normal;font-stretch:normal;line-height:125%;letter-spacing:0px;word-spacing:0px;fill:#ffffff;fill-opacity:1;stroke:none;font-family:Arvo;-inkscape-font-specification:Arvo"
       id="text3986-1" />
  </g>
</svg>
